<svg width="1502" height="398" viewBox="0 0 1502 398" fill="none" xmlns="http://www.w3.org/2000/svg">
<path d="M2.22951 215.061C0.952743 216.583 0.253218 218.506 0.253907 220.492L0.278597 291.653C0.278642 291.783 0.281345 291.911 0.286642 292.038L0.286642 314.841H125.585V252.192L52.8555 252.192L192.704 85.527C193.98 84.0061 194.68 82.0843 194.68 80.099L194.68 8.9085C194.68 1.02476 184.834 -2.55875 179.767 3.48054L2.22951 215.061Z" fill="white"/>
<path d="M319.983 83.1341V105.937C319.988 106.064 319.991 106.193 319.991 106.322L320.015 177.483C320.016 179.47 319.317 181.393 318.04 182.914L140.502 394.495C135.435 400.534 125.589 396.951 125.589 389.067V317.876C125.589 315.891 126.289 313.969 127.565 312.449L267.414 145.783L194.684 145.783V83.1341L319.983 83.1341Z" fill="white"/>
<path fill-rule="evenodd" clip-rule="evenodd" d="M540.362 286.61H581.999V187.883C581.999 174.98 585.186 163.216 591.452 154.737C597.662 146.332 606.986 141.017 619.699 141.017C629.893 141.017 638.271 144.758 644.129 151.517C650.013 158.307 653.522 168.341 653.522 181.185V286.61H695.159V181.185C695.159 157.187 688.532 137.11 676.961 122.988C665.363 108.833 648.894 100.79 629.57 100.79C602.539 100.79 583.442 113.112 571.893 133.095C561.682 112.875 543.783 100.79 520.992 100.79C498.159 100.79 480.822 110.484 468.838 126.104V106.078H427.201V286.61H468.838V187.883C468.838 175.049 472.52 163.296 479.3 154.8C486.043 146.35 495.922 141.017 508.654 141.017C518.83 141.017 526.644 144.742 531.967 151.446C537.343 158.218 540.362 168.264 540.362 181.185V286.61ZM896.292 106.078V286.61H937.929V190.703C937.929 165.932 962.856 148.068 991.494 148.068H993.628V104.315H991.494C970.596 104.315 951.314 114.846 937.929 131.917V106.078H896.292ZM1014.59 103.943V286.61H1056.22V103.943H1014.59ZM1279.6 106.078H1237.96V131.785C1224.01 112.507 1202.96 100.79 1176.29 100.79C1123.97 100.79 1082.14 142.66 1082.14 196.344C1082.14 250.028 1123.97 291.898 1176.29 291.898C1202.96 291.898 1224.01 280.18 1237.96 260.903V286.61H1279.6V106.078ZM1501.64 35.573H1460.01V131.785C1446.06 112.507 1425.01 100.79 1398.34 100.79C1346.02 100.79 1304.19 142.66 1304.19 196.344C1304.19 250.028 1346.02 291.898 1398.34 291.898C1425.01 291.898 1446.06 280.18 1460.01 260.903V286.61H1501.64V35.573ZM1180.52 253.081C1148.2 253.081 1123.43 228.294 1123.43 196.344C1123.43 164.394 1148.2 139.607 1180.52 139.607C1212.51 139.607 1237.96 164.419 1237.96 196.344C1237.96 228.269 1212.51 253.081 1180.52 253.081ZM1345.48 196.344C1345.48 228.294 1370.25 253.081 1402.57 253.081C1434.56 253.081 1460.01 228.269 1460.01 196.344C1460.01 164.419 1434.56 139.607 1402.57 139.607C1370.25 139.607 1345.48 164.394 1345.48 196.344Z" fill="white"/>
<path d="M1014.45 75.1565H1056.14V35.6133H1014.45V75.1565Z" fill="white"/>
<path fill-rule="evenodd" clip-rule="evenodd" d="M728.689 322.175H730.824C749.245 322.175 763.658 311.522 770.424 293.592L770.426 293.589L773.99 284.191L781.742 261.934H759.729L703.111 106.078H745.364L792.362 233.592L839.323 106.078H881.617L810.377 295.098L810.374 295.105C795.038 335.407 764.475 362.402 730.824 362.402H728.689V322.175Z" fill="white"/>
</svg>
