<?xml version="1.0" encoding="UTF-8"?>
<svg version="1.1" xmlns="http://www.w3.org/2000/svg" width="1446" height="483">
<path d="M0 0 C8.20754665 5.4825114 12.69180766 13.53329221 15 23 C15.98438161 28.66012753 16.14480795 34.11860386 16.13803101 39.84112549 C16.14085229 40.81531425 16.14367357 41.78950302 16.14658034 42.79321265 C16.15489514 46.04867334 16.15626191 49.30409989 16.15771484 52.55957031 C16.16238534 54.89740596 16.16752929 57.23524069 16.17311096 59.57307434 C16.18437684 64.60395472 16.19281828 69.63482922 16.19923019 74.66571808 C16.20992575 82.62529068 16.2301568 90.58482582 16.25234985 98.54437256 C16.25982871 101.27128969 16.26724257 103.998207 16.27463722 106.72512436 C16.27648779 107.40653872 16.27833835 108.08795309 16.280245 108.79001637 C16.30115228 116.53855508 16.31998984 124.28709833 16.33789062 132.03564453 C16.3403479 133.09751404 16.3403479 133.09751404 16.34285481 134.18083546 C16.36912929 145.64780356 16.3877806 157.11477487 16.40448253 168.58176032 C16.42193108 180.37149208 16.45080442 192.16116106 16.4893719 203.95084262 C16.51061958 210.56360535 16.52589616 217.17630024 16.52817917 223.78910065 C16.53032977 230.01078952 16.54624157 236.23229208 16.57256889 242.45392418 C16.57974703 244.73268035 16.58187009 247.01145914 16.57846642 249.29022408 C16.57455122 252.4106812 16.58909258 255.53054922 16.60800171 258.65093994 C16.60247201 259.54406049 16.59694232 260.43718104 16.59124506 261.35736585 C16.66884373 268.81993011 17.56480888 277.32462414 22.24609375 283.421875 C25.32729237 286.30640137 28.35466301 288.28402068 32.0625 290.25 C32.67416016 290.58773438 33.28582031 290.92546875 33.91601562 291.2734375 C36.90985119 292.91761962 39.93137625 294.50012405 43 296 C43.65455759 294.00283825 44.2981943 292.00209613 44.9375 290 C45.29714844 288.88625 45.65679688 287.7725 46.02734375 286.625 C48.33293438 278.03227668 48.1783946 269.4093112 48.203125 260.5703125 C48.20736607 259.54091364 48.20736607 259.54091364 48.21169281 258.49071884 C48.22660407 254.86115902 48.23588527 251.23163815 48.24023438 247.60205078 C48.2457176 243.88137621 48.26976547 240.16106779 48.29820633 236.44050789 C48.31695024 233.55263259 48.32204443 230.66484365 48.32357025 227.77691269 C48.32656916 226.40636054 48.33450252 225.03580889 48.34775543 223.66531754 C48.44638345 212.68597945 47.9807573 203.26110326 40.16015625 194.9921875 C37.68428603 192.70883522 35.08476808 190.64429721 32.4375 188.5625 C27.43928296 184.57215389 23.98644507 180.6478349 21 175 C20.66226563 174.36578125 20.32453125 173.7315625 19.9765625 173.078125 C16.65606583 165.70601313 16.86392853 157.25919019 19.625 149.75 C27.76667497 132.11439954 45.54541142 125.28018626 62 117 C61.24799316 116.48904785 60.49598633 115.9780957 59.72119141 115.45166016 C47.17874342 106.8343419 37.91964357 96.31344205 34.3815918 81.18212891 C32.39289584 69.80979081 33.07942927 57.47239889 38 47 C38.350625 46.21753906 38.70125 45.43507812 39.0625 44.62890625 C46.24034083 30.24830153 59.0947276 21.10194614 74 16 C88.1129973 12.23173372 104.64528495 14.6718524 117.25 21.6875 C130.41592556 30.33507015 139.44611941 41.47818641 143 57 C145.68707014 72.86297956 142.26430332 87.754393 132.97265625 100.859375 C129.93131265 104.77857384 127.09149135 108.15414046 123 111 C123.53109375 111.53367187 124.0621875 112.06734375 124.609375 112.6171875 C132.83167772 121.28961628 136.09910675 129.99639192 136.14476013 141.94226074 C136.15165863 143.10825806 136.15855713 144.27425537 136.16566467 145.47558594 C136.16827805 146.74112305 136.17089142 148.00666016 136.17358398 149.31054688 C136.17989638 150.66801157 136.18666294 152.02547421 136.19384766 153.38293457 C136.20847625 156.29991729 136.2202181 159.21689225 136.22979546 162.13389587 C136.24531916 166.75893835 136.26927149 171.38391385 136.29469299 176.00891113 C136.36569588 189.1588923 136.42548235 202.30891219 136.47680664 215.45898438 C136.50524706 222.7267581 136.54070402 229.99446547 136.58346039 237.26216936 C136.6100142 241.84616542 136.62805305 246.43008655 136.63949764 251.01414394 C136.64872281 253.8861606 136.66612993 256.75808747 136.68567657 259.63005066 C136.69653075 261.56673682 136.69789348 263.50346919 136.69880676 265.44018555 C136.70310175 283.72512667 136.70310175 283.72512667 144 300 C147.46921765 303.00491634 151.17241014 305.48126989 155 308 C156.68053847 309.31580622 158.3515499 310.64420952 160 312 C159.75354736 311.46334717 159.50709473 310.92669434 159.25317383 310.3737793 C154.89470787 300.79329135 150.72990073 291.26650096 148.0625 281.0625 C147.87598877 280.35633545 147.68947754 279.6501709 147.49731445 278.92260742 C144.66010029 267.36383125 143.63110729 255.75210968 143.6875 243.875 C143.69313965 242.61308838 143.6987793 241.35117676 143.70458984 240.05102539 C144.09675604 209.54554272 152.97494221 179.2339217 172 155 C172.42394043 154.45939941 172.84788086 153.91879883 173.28466797 153.36181641 C196.11987662 124.5529105 227.15732849 108.93022491 263.296875 104.60546875 C266.20002473 104.323427 269.08634018 104.13040156 272 104 C272.89074219 103.95875 273.78148437 103.9175 274.69921875 103.875 C305.72555661 103.182641 333.52745996 112.00038833 358 131 C359.13308594 129.37771484 359.13308594 129.37771484 360.2890625 127.72265625 C364.33040844 122.33854053 369.06258468 117.67280539 373.83984375 112.9543457 C375.37037666 111.44206819 376.89275532 109.92194302 378.4140625 108.40039062 C383.21544798 103.61697342 388.08419649 98.96891701 393.234375 94.55834961 C395.5278744 92.53409536 397.64481599 90.37023359 399.765625 88.16772461 C409.99407771 77.55344485 420.70420996 68.34290776 436.1875 67.5625 C445.66074977 68.64959424 454.1287216 71.71909138 460.71875 78.86328125 C464.4985484 83.9833653 466.31028333 89.59461422 468.17675781 95.60205078 C469.92232969 101.10354416 471.74577382 106.13041516 476.9921875 109.14453125 C481.50304039 110.42748811 485.95757791 110.29813308 490.625 110.375 C503.50310796 110.79181142 513.56731627 113.15343133 522.68359375 122.77734375 C530.74797946 132.61146996 532.21490533 143.70218276 531 156 C528.80434972 166.06545295 523.47696016 173.8600784 515.07421875 179.75 C508.05957141 183.97728277 500.79125713 184.97532825 492.6796875 185.17578125 C491.73222656 185.19962891 490.78476563 185.22347656 489.80859375 185.24804688 C487.84527723 185.29118232 485.8816627 185.32234152 483.91796875 185.34179688 C479.50729803 185.47116853 476.730837 185.56497797 472.8828125 187.85546875 C469.5452359 191.65698234 469.79679073 195.61038446 469.68359375 200.41796875 C469.66263138 201.17136032 469.64166901 201.92475189 469.62007141 202.70097351 C469.55316121 205.19637041 469.49439528 207.69185557 469.4375 210.1875 C469.40722717 211.46914032 469.40722717 211.46914032 469.37634277 212.77667236 C469.22783512 219.18407825 469.1063717 225.59176354 469 232 C468.97682709 233.39215729 468.97682709 233.39215729 468.95318604 234.81243896 C468.86613293 240.29511278 468.80301592 245.77738801 468.76882935 251.26065063 C468.75637284 252.99016633 468.73893449 254.71965401 468.71627808 256.44906616 C468.20308028 270.75996744 468.20308028 270.75996744 473.9375 283.5 C478.07287742 286.50754722 481.9818753 286.18697947 487 286 C489.78846115 285.44937064 492.50938475 284.68703538 495.25 283.9375 C505.23534367 281.43604035 513.39116662 281.21825646 522.64453125 286.3671875 C530.3953915 291.74008897 535.01077589 298.81227114 537 308 C538.64938654 321.10918678 533.65146069 331.6316099 526 342 C510.77068568 361.05643836 489.58351723 372.73095875 465.45703125 375.68359375 C444.46508481 377.60489054 423.29779142 373.15446018 406.44140625 360.00390625 C391.77210215 347.47806211 382.85429403 330.24252353 381 311 C380.84289078 307.1605716 380.8256109 303.32326294 380.81054688 299.48095703 C380.80225357 298.34037338 380.79396027 297.19978973 380.78541565 296.02464294 C380.7680667 293.5572864 380.75288601 291.08991386 380.73963928 288.62253189 C380.71856443 284.7234803 380.69154941 280.82450989 380.66296387 276.92550659 C380.59796428 267.95416862 380.5422551 258.98277771 380.48697662 250.01137543 C380.43211608 241.1167454 380.3735198 232.22216161 380.30812073 223.32760239 C380.28146123 219.47583091 380.26070479 215.62405533 380.2401123 211.77224731 C380.22352008 209.4290547 380.20664921 207.08586404 380.18945312 204.74267578 C380.18526871 203.66323196 380.18108429 202.58378815 380.17677307 201.47163391 C380.16842941 200.49591934 380.16008575 199.52020477 380.15148926 198.5149231 C380.14633553 197.66213839 380.14118179 196.80935368 380.13587189 195.93072701 C380.21155484 193.99298033 380.21155484 193.99298033 379 193 C378.8040625 193.60585937 378.608125 194.21171875 378.40625 194.8359375 C374.41529287 206.01749842 367.40786934 214.24506048 357 220 C343.89881399 225.77579168 330.59872126 227.05153093 317 222 C302.1603956 215.85496558 294.03404936 205.35297944 287.875 190.75 C287.42459351 189.61546387 287.42459351 189.61546387 286.96508789 188.45800781 C284.29175304 181.92844657 280.92248611 176.77641313 274.8125 173.0625 C267.72730867 171.08793848 261.4851111 170.96973963 254.6875 174 C245.98192528 178.93913748 242.74668451 186.72496389 240 196 C233.18693818 220.92683097 234.71810663 252.88871712 246.59765625 276.125 C252.70372352 286.36205128 260.43033641 292.34397769 271.5625 296.25 C285.8037673 299.35565947 299.86021464 296.63148267 312.125 289.09375 C316.04450356 286.23932893 319.2306734 282.88063415 322.55859375 279.37109375 C329.70354698 272.43191517 337.92343297 269.0281212 347.8125 268.625 C356.79785763 268.81546269 364.0329261 272.14437754 370.953125 277.80078125 C377.23338288 284.5484629 380.38076266 293.42341355 380.203125 302.52734375 C379.02744259 316.83901618 369.24569702 329.66856975 360 340 C359.47277344 340.60972656 358.94554687 341.21945312 358.40234375 341.84765625 C338.5651701 363.3083326 306.6378642 374.72634836 278 376 C276.28683594 376.07927734 276.28683594 376.07927734 274.5390625 376.16015625 C257.25108172 376.56342558 240.20473519 374.06381882 224 368 C222.81148437 367.55785156 221.62296875 367.11570312 220.3984375 366.66015625 C206.07965259 360.92946739 194.37954018 352.25099074 183 342 C182.31164063 341.38382812 181.62328125 340.76765625 180.9140625 340.1328125 C175.85647755 335.34984755 171.96486203 329.69498364 168 324 C168.10699219 324.88300781 168.21398438 325.76601563 168.32421875 326.67578125 C169.45229198 337.96864337 168.43563191 346.67747821 161.66015625 356 C153.69466779 365.5960708 144.06347551 368.50037999 132 370 C127.14777297 370.35152673 122.30044327 370.50592787 117.4375 370.625 C116.0956136 370.6623059 114.75373539 370.69990725 113.41186523 370.73779297 C109.60820536 370.8409378 105.80430343 370.92389279 102 371 C101.09797852 371.01804687 100.19595703 371.03609375 99.26660156 371.0546875 C93.84159771 371.14476643 88.42452438 371.10606612 83 371 C81.80632813 370.97679687 80.61265625 370.95359375 79.3828125 370.9296875 C75.96593431 370.85905313 72.54960246 370.77386304 69.13327026 370.68060303 C67.12549716 370.62669156 65.11755714 370.57911227 63.10961914 370.53173828 C48.38667323 370.07872456 34.98994262 368.70073361 24 358 C24 357.34 24 356.68 24 356 C22.9790625 356.4846875 21.958125 356.969375 20.90625 357.46875 C11.97760181 361.61874391 2.95709064 365.229154 -6.375 368.375 C-7.34759766 368.70822266 -8.32019531 369.04144531 -9.32226562 369.38476562 C-26.12448464 374.91734214 -39.51908276 375.28506079 -55.46875 367.59375 C-67.03695486 362.37270179 -78.15804313 366.27281907 -89.50585938 370.25683594 C-115.00569876 379.16342675 -142.85943948 377.82044857 -167.3269043 366.14794922 C-170.5982067 364.5140528 -173.80990941 362.78666364 -177 361 C-177.97453125 360.45601563 -178.9490625 359.91203125 -179.953125 359.3515625 C-200.23876651 347.19204054 -213.53478896 329.28262671 -225 309 C-225.20753906 309.51046875 -225.41507813 310.0209375 -225.62890625 310.546875 C-236.84453375 337.01387882 -257.54881758 356.31863214 -284.00097656 367.22998047 C-293.98479596 371.07572624 -304.38359202 373.70126446 -315 375 C-315.87527344 375.11085938 -316.75054688 375.22171875 -317.65234375 375.3359375 C-352.04374976 379.07303595 -385.68510396 370.21457455 -413.125 349.1875 C-429.25379775 335.75123477 -440.40343628 320.09100382 -449 301 C-449.70576172 299.47246094 -449.70576172 299.47246094 -450.42578125 297.9140625 C-463.23546809 267.69430593 -463.15284799 231.33529403 -455 200 C-455.58007812 200.20496094 -456.16015625 200.40992188 -456.7578125 200.62109375 C-469.81464709 205.12419347 -480.71593878 204.64903352 -493.64672852 200.01855469 C-499.80537008 197.82050564 -504.51390613 196.19830726 -511 198 C-511.94875 198.2475 -512.8975 198.495 -513.875 198.75 C-516.76662895 200.4509582 -517.0283974 201.80759147 -518 205 C-518.5174138 206.31385181 -519.03850504 207.62625903 -519.5625 208.9375 C-521.59842898 214.07479231 -522.12351153 219.2272942 -522.14526367 224.72314453 C-522.15164352 225.82514191 -522.15802338 226.92713928 -522.16459656 228.06253052 C-522.16570938 229.24072357 -522.1668222 230.41891663 -522.16796875 231.6328125 C-522.17129715 232.86103729 -522.17462555 234.08926208 -522.17805481 235.35470581 C-522.18311112 237.95196153 -522.18546354 240.54922373 -522.18530273 243.14648438 C-522.18748065 247.08995493 -522.20562692 251.03314171 -522.22460938 254.9765625 C-522.22754539 257.50781155 -522.22952879 260.03906192 -522.23046875 262.5703125 C-522.24124702 264.319384 -522.24124702 264.319384 -522.25224304 266.10379028 C-522.28676433 280.71824044 -522.28676433 280.71824044 -517 294 C-512.6792055 298.03746371 -508.65406545 300.23480646 -503.1875 302.375 C-492.35888707 306.90897164 -485.13225215 312.11289462 -480 323 C-476.94064405 330.85339827 -476.67565426 339.36155545 -479.625 347.3125 C-483.93913687 356.58714267 -489.83540664 362.88072126 -499.296875 367 C-507.20349189 369.8354764 -515.46897856 370.18697542 -523.79296875 370.5546875 C-524.73915573 370.59673309 -525.68534271 370.63877869 -526.66020203 370.68209839 C-537.70366461 371.12782099 -548.74616393 371.15042307 -559.79711914 371.13037109 C-563.32637776 371.1249788 -566.85551066 371.13037249 -570.38476562 371.13671875 C-619.72252461 371.15226425 -619.72252461 371.15226425 -632.875 358.6875 C-640.61645495 350.48101066 -642.67992563 342.06134879 -642.40234375 330.96875 C-641.59156298 322.97114552 -638.06528234 316.50177729 -632.125 311.125 C-630.0926459 309.51232896 -628.01505097 308.01048839 -625.88671875 306.52734375 C-616.40514035 299.83131381 -613.55664291 291.464986 -611.39096069 280.37438965 C-610.76208769 276.55510657 -610.54286522 272.7504272 -610.37890625 268.88671875 C-610.33993729 268.02993027 -610.30096832 267.17314178 -610.26081848 266.29039001 C-609.88097795 256.8508661 -609.93741413 247.42253269 -610.13208008 237.97924805 C-610.18792427 235.04017078 -610.21612722 232.10156775 -610.24414062 229.16210938 C-610.33888727 210.34963175 -610.33888727 210.34963175 -619.375 194.4375 C-620.10460937 193.67308594 -620.83421875 192.90867188 -621.5859375 192.12109375 C-624.26335612 189.76860458 -626.99453828 187.90981069 -630 186 C-629.66226562 187.19753906 -629.32453125 188.39507812 -628.9765625 189.62890625 C-628.52552957 191.27329713 -628.07503854 192.9178367 -627.625 194.5625 C-627.40328125 195.34302734 -627.1815625 196.12355469 -626.953125 196.92773438 C-623.45708855 209.83222186 -622.61677982 222.88493773 -622.6875 236.1875 C-622.69023422 237.26392258 -622.69023422 237.26392258 -622.69302368 238.36209106 C-622.74304251 250.11097534 -623.4144022 261.50986805 -626 273 C-626.16628906 273.75200684 -626.33257813 274.50401367 -626.50390625 275.27880859 C-631.3549211 296.39419824 -640.92021464 315.51963821 -655 332 C-655.65226563 332.79792969 -656.30453125 333.59585937 -656.9765625 334.41796875 C-677.96717285 359.14286372 -709.62326648 372.28512025 -741.375 375.625 C-748.47907626 376.19577227 -755.86567337 376.69182173 -762.91796875 375.51171875 C-766.47285567 374.92149038 -769.89730831 374.75706417 -773.5 374.6875 C-774.7684375 374.65011719 -776.036875 374.61273438 -777.34375 374.57421875 C-781.61831544 375.07200468 -783.72041666 376.258782 -787 379 C-789.30797648 385.92392945 -789.48028964 396.93603382 -786.5 403.75 C-783.91526697 407.81172333 -780.15174524 409.77189672 -776 412 C-766.93406443 417.02794702 -759.57794885 422.69431287 -756.5625 433.0625 C-755.0393986 443.72420981 -756.39330631 453.06051755 -762.5703125 462.125 C-769.32524957 470.98393387 -777.92552422 475.87573888 -788.99731445 477.62475586 C-802.52886896 479.31578759 -816.24519665 479.15797581 -829.85644531 479.13037109 C-832.99549181 479.1250077 -836.13439529 479.13035252 -839.2734375 479.13671875 C-883.22447614 479.15228575 -883.22447614 479.15228575 -898.25 468.75 C-906.28321466 460.71678534 -909.49147471 452.61534414 -909.50195312 441.25805664 C-909.26203117 433.30337166 -906.48804929 426.82537093 -901.1015625 420.91796875 C-898.51256999 418.56945578 -895.77105678 416.54640678 -892.921875 414.52734375 C-884.59042798 408.56495323 -880.04622388 402.12807213 -878 392 C-876.72495004 384.20805277 -876.84431725 376.40713383 -876.83886719 368.53466797 C-876.83423216 366.97001531 -876.82920659 365.40536376 -876.82382202 363.8407135 C-876.81076117 359.60691157 -876.80426535 355.37312545 -876.79981136 351.13930655 C-876.79687014 348.48780833 -876.79276338 345.83631434 -876.78830719 343.18481827 C-876.77464831 334.87036596 -876.76497404 326.55592342 -876.7611053 318.24146068 C-876.75662968 308.67815295 -876.73909803 299.11498851 -876.7101047 289.55172431 C-876.68841242 282.13654064 -876.67839699 274.72139706 -876.67706418 267.30618203 C-876.67602146 262.88814588 -876.67022825 258.47024472 -876.65224457 254.05224228 C-876.63563292 249.89068815 -876.63367107 245.72936859 -876.64238358 241.56779289 C-876.64314703 240.05140614 -876.6389041 238.53500607 -876.62892532 237.01865196 C-876.48146201 213.18834801 -883.62897136 199.54187178 -899.23046875 182.57421875 C-899.83503906 181.91035156 -900.43960938 181.24648437 -901.0625 180.5625 C-901.56910156 180.02753906 -902.07570313 179.49257812 -902.59765625 178.94140625 C-907.93353213 171.55441374 -908.34160467 162.74289739 -907 154 C-905.54767178 149.57813469 -903.56942499 145.8689725 -901 142 C-900.33291016 140.98679688 -900.33291016 140.98679688 -899.65234375 139.953125 C-895.54443982 134.53979387 -889.83662735 131.28529639 -884 128 C-883.28956543 127.59765137 -882.57913086 127.19530273 -881.84716797 126.78076172 C-835.25624348 100.70339069 -835.25624348 100.70339069 -816.1328125 105.7578125 C-810.52381536 107.7310608 -805.27297426 110.26935262 -800 113 C-789.08619486 116.63793505 -778.43002268 113.33275775 -768.0300293 109.66601562 C-741.86945541 100.46353932 -714.05711596 104.48082592 -689.25537109 115.89257812 C-668.64023658 126.01492605 -653.53816937 142.19274595 -641 161 C-640.87044922 160.07380859 -640.87044922 160.07380859 -640.73828125 159.12890625 C-639.64946597 152.56604715 -637.68415507 147.53142155 -634 142 C-633.42185547 141.10861328 -633.42185547 141.10861328 -632.83203125 140.19921875 C-620.36032035 123.5063134 -587.81788688 110.35452576 -568 106 C-555.2101711 104.60605236 -546.05507076 107.21957111 -534.72314453 113.15209961 C-528.06977871 116.42599299 -521.0932285 115.58441522 -514.25 113.3125 C-512.16111804 112.55683211 -510.07806179 111.78493375 -508 111 C-505.54351385 110.09911382 -503.08514968 109.20333315 -500.625 108.3125 C-499.50351562 107.89613281 -498.38203125 107.47976562 -497.2265625 107.05078125 C-482.9177214 102.39088022 -465.38494888 104.0437012 -451.8125 110.125 C-440.88950506 116.04903472 -433.25630228 124.79091643 -429.625 136.61328125 C-428.55360699 140.7046633 -427.73873178 144.83702915 -427 149 C-426.51273437 148.40574219 -426.02546875 147.81148437 -425.5234375 147.19921875 C-405.35402746 123.61934483 -373.93322678 107.78704717 -343 105 C-308.6413059 103.01411468 -278.30166768 111.41572797 -252.3203125 134.3671875 C-239.03010807 146.99495183 -230.2212671 162.49339854 -225 180 C-224.53851562 179.07960937 -224.07703125 178.15921875 -223.6015625 177.2109375 C-216.7065036 163.72435317 -208.47840769 151.97454442 -198 141 C-197.46375 140.40058594 -196.9275 139.80117187 -196.375 139.18359375 C-176.91889958 118.21964555 -145.15595155 106.08006306 -117.03173828 104.87255859 C-99.58678887 104.42777105 -99.58678887 104.42777105 -91 106 C-81.92595663 106.87666525 -81.92595663 106.87666525 -73.625 103.9375 C-71.574333 100.23052504 -71.41236603 98.18689203 -72 94 C-73.96691901 87.57473122 -78.59951684 85.35776794 -84 82 C-92.76645425 76.04452836 -98.76156654 69.9362641 -101.6875 59.5625 C-102.93364645 49.34409908 -100.96371073 39.48015847 -94.75 31.0625 C-88.40126593 23.15801179 -79.15954303 18.70999014 -70.3125 14.1875 C-69.72472778 13.88485229 -69.13695557 13.58220459 -68.53137207 13.27038574 C-19.42487157 -11.98239204 -19.42487157 -11.98239204 0 0 Z M-353 175 C-355.36980013 177.95377498 -355.36980013 177.95377498 -355 182 C-349.22580417 184.64642411 -343.81360012 184.33043201 -337.5625 184.3125 C-336.44294922 184.32861328 -335.32339844 184.34472656 -334.16992188 184.36132812 C-328.30590139 184.36480826 -323.94230354 184.30358561 -319 181 C-318.49758678 178.6704053 -318.49758678 178.6704053 -319 176 C-328.27801172 168.4088995 -342.94935684 168.79102829 -353 175 Z M-134.75 186.5 C-143.52648125 199.89889713 -145.39149358 216.48314362 -145.3125 232.125 C-145.30686035 233.30425049 -145.3012207 234.48350098 -145.29541016 235.69848633 C-145.00018999 257.12240926 -140.89367868 276.86196219 -126.09765625 293.0859375 C-119.41349592 299.56506224 -111.65546621 302.16381535 -102.4375 302.5 C-94.14544829 302.20490919 -86.72515197 299.68950398 -80.59765625 293.953125 C-71.09531004 282.33656485 -70.68364845 268.64164902 -70.69921875 254.3515625 C-70.69532101 252.84760421 -70.69098416 251.343647 -70.68623352 249.83969116 C-70.67881326 246.70135923 -70.67903183 243.56313987 -70.68432617 240.42480469 C-70.69011465 236.43532362 -70.67318454 232.44630775 -70.6499815 228.45690346 C-70.63513384 225.35447571 -70.63438732 222.25215716 -70.63749123 219.14970016 C-70.63698352 217.68033299 -70.63185127 216.21095879 -70.62167931 214.74162674 C-70.54570126 202.23440382 -71.04337813 190.48848778 -80 181 C-80.73669922 180.16855469 -80.73669922 180.16855469 -81.48828125 179.3203125 C-87.40862921 173.41465522 -96.28335016 170.95479612 -104.5 170.5 C-117.06533697 171.21603942 -127.1325468 176.65942742 -134.75 186.5 Z M-779.6796875 188.74609375 C-786.76680107 197.22594855 -789.09320608 208.54763936 -789.16113281 219.36572266 C-789.17074036 220.6078653 -789.1803479 221.85000793 -789.19024658 223.12979126 C-789.19509717 224.47454644 -789.19937536 225.8193038 -789.203125 227.1640625 C-789.20595238 227.84966625 -789.20877975 228.53527 -789.21169281 229.24164963 C-789.22664026 232.87350594 -789.23589644 236.50532303 -789.24023438 240.13720703 C-789.2456974 243.85550155 -789.26969183 247.57342591 -789.29820633 251.291605 C-789.31699815 254.17956529 -789.32204711 257.06743956 -789.32357025 259.95545578 C-789.32800141 261.9825238 -789.34656786 264.00954546 -789.36553955 266.03652954 C-789.33465431 279.01444575 -787.41073678 291.47568871 -777.9609375 301.0703125 C-769.28898211 308.393978 -759.98465848 309.75279992 -748.91015625 309.34375 C-740.77682753 308.62873209 -733.78888314 306.00630864 -727.84765625 300.296875 C-712.63057555 281.38008124 -713.27742365 252.94325247 -715.49609375 230.0546875 C-717.49455544 213.18881371 -722.0845023 195.05574499 -736 184 C-750.23032737 174.69779829 -767.93773354 176.53992301 -779.6796875 188.74609375 Z M-245.45703125 246.02734375 C-250.58738737 247.98964586 -255.29629348 248.15642758 -260.7565918 248.17358398 C-261.64004776 248.180271 -262.52350372 248.18695801 -263.43373108 248.19384766 C-265.35109269 248.20788646 -267.2684709 248.21978423 -269.18585777 248.22979546 C-272.22575753 248.24623729 -275.26553524 248.26947856 -278.30537415 248.29469299 C-286.94823085 248.36536664 -295.5911382 248.4254535 -304.23413086 248.47680664 C-309.52320968 248.50870934 -314.812149 248.55001634 -320.10111427 248.59700203 C-322.11160572 248.61295806 -324.12212927 248.62530895 -326.13266563 248.63390923 C-328.95406516 248.64614866 -331.77514072 248.67033535 -334.59643555 248.69702148 C-335.82887497 248.6979052 -335.82887497 248.6979052 -337.08621216 248.69880676 C-345.1593525 248.7993038 -352.61799424 249.68166186 -359 255 C-361.8082183 258.36986196 -362.53848417 261.29797342 -362.34765625 265.6953125 C-360.84905561 275.62985604 -356.03277618 283.91905777 -348.3125 290.25 C-337.06269794 298.18976415 -323.06597563 299.32831882 -309.7734375 297.57421875 C-298.50441098 295.15093205 -289.9680275 289.4299091 -282.1484375 281.14453125 C-274.7347935 273.74436661 -266.52053856 269.91089102 -256.125 269.5625 C-249.66868614 269.69412013 -244.70916141 271.0705801 -239 274 C-237.68 274.66 -236.36 275.32 -235 276 C-235.66 265.11 -236.32 254.22 -237 243 C-239.7875038 243 -242.91207909 244.97853776 -245.45703125 246.02734375 Z M166 321 C167 323 167 323 167 323 Z " fill="#6E57F9" transform="translate(909,4)"/>
</svg>
