<svg width="1200" height="320" viewBox="0 0 1200 320" fill="none" xmlns="http://www.w3.org/2000/svg">
  <rect width="1200" height="320" fill="#080808"/>
  <path d="M0 80H1200M0 160H1200M0 240H1200M200 0V320M400 0V320M600 0V320M800 0V320M1000 0V320" stroke="#343434" stroke-opacity="0.46"/>

  <rect x="58" y="54" width="92" height="92" rx="12" fill="#111111" stroke="#464646"/>
  <g transform="translate(80 76)">
    <path d="M5 11H15L21 21M5 37H15L21 27M27 21L33 11H43M27 27L33 37H43" stroke="#FAFAFA" stroke-width="3.2" stroke-linecap="square" stroke-linejoin="miter"/>
    <path d="M21 16V32M27 16V32" stroke="#FAFAFA" stroke-width="3.2"/>
  </g>
  <text x="174" y="122" fill="#FAFAFA" font-family="Inter, Arial, sans-serif" font-size="60" font-weight="650" letter-spacing="-3">txBet</text>
  <text x="61" y="181" fill="#A6A6A6" font-family="JetBrains Mono, monospace" font-size="13" letter-spacing="2.5">EVENT-DRIVEN TRADING INFRASTRUCTURE</text>
  <text fill="#FAFAFA" font-family="Instrument Serif, Georgia, serif" font-size="42" letter-spacing="-1.2">
    <tspan x="61" y="222">See the gap before</tspan>
    <tspan x="61" y="260">the market catches up.</tspan>
  </text>
  <text x="63" y="294" fill="#A6A6A6" font-family="Inter, Arial, sans-serif" font-size="17">Event-triggered exact-complement strategy prototype.</text>

  <g transform="translate(738 48)">
    <rect width="402" height="224" rx="12" fill="#101010" stroke="#3A3A3A"/>
    <text x="26" y="31" fill="#999999" font-family="JetBrains Mono, monospace" font-size="11" letter-spacing="1.8">LATENCY CORRIDOR</text>
    <path d="M26 70H376M26 112H376M26 154H376M26 196H376" stroke="#3A3A3A"/>
    <path d="M98 48V206" stroke="#FAFAFA" stroke-width="2"/>
    <path d="M98 70H190V112H264V154H338V196H376" stroke="#FAFAFA" stroke-width="3" stroke-linecap="square" stroke-linejoin="miter"/>
    <rect x="89" y="61" width="18" height="18" fill="#FAFAFA"/>
    <circle cx="190" cy="112" r="6" fill="#FAFAFA"/>
    <circle cx="264" cy="154" r="6" fill="#FAFAFA"/>
    <circle cx="338" cy="196" r="6" fill="#FAFAFA"/>
    <text x="84" y="220" fill="#999999" font-family="JetBrains Mono, monospace" font-size="12">T+0</text>
    <text x="172" y="101" fill="#999999" font-family="JetBrains Mono, monospace" font-size="12">V01</text>
    <text x="246" y="143" fill="#999999" font-family="JetBrains Mono, monospace" font-size="12">V02</text>
    <text x="320" y="185" fill="#999999" font-family="JetBrains Mono, monospace" font-size="12">V03</text>
  </g>

  <text x="738" y="297" fill="#8F8F8F" font-family="JetBrains Mono, monospace" font-size="11" letter-spacing="1.2">TXLINE SMOKE BOUNDARY · SYNTHETIC VENUE BOOKS · SIMULATED FILLS</text>
</svg>
